<svg xmlns="http://www.w3.org/2000/svg" viewBox="0 0 159.95 159.95"><defs><style>.cls-1{fill:#a0b2dc;}.cls-2{fill:#fff;}</style></defs><g id="Layer_2" data-name="Layer 2"><g id="Layer_2-2" data-name="Layer 2"><circle class="cls-1" cx="79.98" cy="79.98" r="79.98"/><g id="Layer_1-2" data-name="Layer 1-2"><path class="cls-2" d="M107.4,70.08a20,20,0,1,0,20,20A20,20,0,0,0,107.4,70.08Zm0,36.4a16.37,16.37,0,1,1,16.38-16.37A16.36,16.36,0,0,1,107.4,106.48Z"/><path class="cls-2" d="M48.76,70.08a20,20,0,1,0,20,20A20,20,0,0,0,48.76,70.08Zm0,36.4A16.37,16.37,0,1,1,65.13,90.11,16.37,16.37,0,0,1,48.76,106.48Z"/><polygon class="cls-2" points="60.28 80.72 59.3 79.64 55.85 82.75 54.38 86.03 60.28 80.72"/><polygon class="cls-2" points="57.1 86.63 61.84 86.63 63.1 86.22 62.65 84.83 57.1 86.63"/><path class="cls-2" d="M54.29,90a4.8,4.8,0,0,0-.08-.85l3.12-1H51.86l1.31-2.94-.82.73a5.41,5.41,0,0,0-.69-.49l3.8-8.55-1.33-.6-3.8,8.55a6.3,6.3,0,0,0-.84-.18v-1.1l-2.57,5.77v0a1.55,1.55,0,0,0-.07.23s0,.1-.05.16,0,.09,0,.14a2.06,2.06,0,0,0,0,.26h0v.12a1.9,1.9,0,0,0,0,.25,1.05,1.05,0,0,0,0,.19l.06.19A.76.76,0,0,0,47,91a1.29,1.29,0,0,0,.09.16.83.83,0,0,0,.11.15s.08.11.13.16l.14.12.16.13.2.12.12.07h0a2.07,2.07,0,0,0,.33.1l.07,0h.16l.24,0h5.16a4.64,4.64,0,0,0,.23-.72l6.78.72h2.55l.13-1.19Z"/><path class="cls-2" d="M53.06,93.59h-4.3a2.83,2.83,0,0,1-.41,0l-.29,0-.17,0a2.52,2.52,0,0,1-.39-.12h0l-.09,0h0a1.57,1.57,0,0,1-.25-.14h0A1.77,1.77,0,0,1,46.8,93a2.51,2.51,0,0,1-.24-.19l-.05,0-.22-.2a2.25,2.25,0,0,1-.21-.24l0,0L45.86,92c0-.09-.1-.17-.14-.26l0-.05c0-.1-.1-.19-.14-.29s-.06-.19-.09-.29l0-.06c0-.1-.06-.2-.08-.29s0-.27,0-.4a2.28,2.28,0,0,1,0-.26V90a1.37,1.37,0,0,1,0-.31,1.15,1.15,0,0,1,0-.26c0-.09.05-.18.08-.29v0c0-.07,0-.15.08-.23v0l0-.11,1.74-3.92-.14,0-3.79-8.53-1.34.58,3.81,8.56a4.29,4.29,0,0,0-.69.49l-7-6.25-1,1.09L44.19,87a6.79,6.79,0,0,0-.43.74l-8.89-2.88-.45,1.39,8.89,2.89a6,6,0,0,0-.09.85l-9.3,1,.16,1.45,9.29-1a4.5,4.5,0,0,0,.26.81l-8.1,4.68.74,1.27,8.1-4.68a5.05,5.05,0,0,0,.59.63l-5.52,7.56,1.19.87L46.12,95a5.41,5.41,0,0,0,.78.34L45,104.49l1.43.29,1.94-9.15.43,0a3.1,3.1,0,0,0,.43,0l1.94,9.15,1.43-.29-1.94-9.15A5.41,5.41,0,0,0,51.4,95l5.49,7.55,1.18-.87-5.49-7.55A6.17,6.17,0,0,0,53.06,93.59Z"/><polygon class="cls-2" points="49.49 79.91 49.49 75.27 48.03 75.27 48.03 83.2 49.49 79.91"/><polygon class="cls-2" points="53.32 93.59 61.25 98.17 61.98 96.9 56.25 93.59 53.32 93.59"/><path class="cls-2" d="M75,88.1H51.86L63.33,62.33a2,2,0,0,0-3.65-1.7l0,.07L46.92,89.29v0a1.55,1.55,0,0,0-.07.23s0,.1-.05.16,0,.09,0,.14a2.06,2.06,0,0,0,0,.26h0v.12a1.9,1.9,0,0,0,0,.25,1.05,1.05,0,0,0,0,.19l.06.19A.76.76,0,0,0,47,91a1.29,1.29,0,0,0,.09.16.83.83,0,0,0,.11.15s.08.11.13.16l.14.12.16.13.2.12.12.07h0a2.07,2.07,0,0,0,.33.1l.07,0h.16l.24,0H75a2,2,0,0,0,0-4Z"/><circle class="cls-2" cx="75.04" cy="90.11" r="4.96"/><line class="cls-2" x1="75.04" y1="90.11" x2="102.56" y2="52.26"/><path class="cls-2" d="M75,92.13a2,2,0,0,1-1.63-3.2l27.52-37.85a2,2,0,1,1,3.33,2.27l-.08.1L76.67,91.3A2,2,0,0,1,75,92.13Z"/><line class="cls-2" x1="75.04" y1="90.11" x2="58.99" y2="55.89"/><path class="cls-2" d="M75,92.13A2,2,0,0,1,73.22,91l-16-34.22A2,2,0,0,1,60.82,55L76.88,89.26A2,2,0,0,1,75,92.13Z"/><line class="cls-2" x1="79.48" y1="99.58" x2="75.04" y2="90.11"/><path class="cls-2" d="M79.48,100.67a1.09,1.09,0,0,1-1-.63l-4.44-9.46a1.1,1.1,0,1,1,2-.93l4.44,9.46a1.09,1.09,0,0,1-.52,1.46,1.12,1.12,0,0,1-.48.1Z"/><line class="cls-2" x1="95.83" y1="61.51" x2="61.49" y2="61.51"/><path class="cls-2" d="M95.83,63.53H61.49a2,2,0,0,1,0-4H95.83a2,2,0,1,1,0,4Z"/><path class="cls-2" d="M102.56,52.26a9.33,9.33,0,0,0-5.69-3.36A8.37,8.37,0,0,0,94,49"/><path class="cls-2" d="M102.56,54.28a2,2,0,0,1-1.57-.75,7.08,7.08,0,0,0-4.41-2.63,6.32,6.32,0,0,0-2.21.08,2,2,0,0,1-1-3.91l.14,0a10.19,10.19,0,0,1,3.61-.13,11.11,11.11,0,0,1,7,4.09,2,2,0,0,1-1.56,3.28Z"/><path class="cls-2" d="M51.42,52.65a2.82,2.82,0,0,0-.66,2.76c.46,1,1.94,1.63,3.67,1.33L68,56.06c1.13-1.08,1.35-1.82,1.21-2.33-.23-.83-1.48-1.28-9.14-1.89C54.15,51.36,52.46,51.43,51.42,52.65Z"/><path class="cls-2" d="M83.76,100.29a12.8,12.8,0,0,1-8.55,0V98.13h8.55Z"/><path class="cls-2" d="M97.05,79.81l-.19-.17-1,1.09,2.94,2.64C98.19,82.2,97.59,81,97.05,79.81Z"/><path class="cls-2" d="M122.09,92.39l.15-1.45L113,90a6,6,0,0,0-.09-.85l8.89-2.89-.45-1.39-8.89,2.89A5.41,5.41,0,0,0,112,87l6.94-6.25-1-1.09-7,6.25a4.69,4.69,0,0,0-.68-.49l3.8-8.55-1.34-.6L109,84.8a5.84,5.84,0,0,0-.83-.18V75.26H106.7V83a51.9,51.9,0,0,0,3.45,4.89,3.49,3.49,0,0,1-5.21,4.63,2.92,2.92,0,0,1-.23-.29,57.92,57.92,0,0,1-3.57-5l-7.63-2.45-.45,1.39L102,89.12a4.8,4.8,0,0,0-.08.85l-9.29,1,.15,1.46,9.29-1a4.5,4.5,0,0,0,.26.81l-8.1,4.67.73,1.27L103,93.5a6.87,6.87,0,0,0,.58.63l-5.5,7.55,1.18.87,5.5-7.55a5.82,5.82,0,0,0,.77.34l-1.94,9.15,1.43.29,2-9.15.42,0a3.17,3.17,0,0,0,.43,0l1.94,9.15,1.43-.29-1.94-9.15A5.41,5.41,0,0,0,110,95l5.49,7.55,1.19-.87-5.5-7.55a5.7,5.7,0,0,0,.58-.63l8.09,4.67.73-1.27-8.09-4.68a5.44,5.44,0,0,0,.25-.81Z"/><path class="cls-2" d="M99.46,70.32a50.64,50.64,0,0,1-1.62-9,2,2,0,0,0-2-1.84h-.17a2,2,0,0,0-1.83,2.18h0a55.11,55.11,0,0,0,1.74,9.7,55.72,55.72,0,0,0,10.25,20A2,2,0,0,0,109,88.85,51.56,51.56,0,0,1,99.46,70.32Z"/></g></g></g></svg>