<svg xmlns="http://www.w3.org/2000/svg" viewBox="0 0 159.16 159.16"><defs><style>.cls-1{fill:#a0b2dc;}.cls-2{fill:#fff;}</style></defs><g id="Layer_2" data-name="Layer 2"><g id="Layer_2-2" data-name="Layer 2"><circle class="cls-1" cx="79.58" cy="79.58" r="79.58"/><path class="cls-2" d="M71.53,85.14c-.19-.19-.38-.38-.55-.58L69.17,95.39c0,.22,0,.41-.08.6L64,111.36c-.91,3.46,0,4.61,1,5s2.22.77,4-2.55l7.79-15.7s0-.06,0-.06a1.94,1.94,0,0,0,.2-.57l1-4.17Z"/><path class="cls-2" d="M96.39,78.37l-4.74-8L88.39,60.28,86,70.56l.74,2a3.16,3.16,0,0,0,.52.91L92.69,81c1.12,1.68,2.55,2.77,4.08,1.81S97.08,79.52,96.39,78.37Z"/><path class="cls-2" d="M95.79,111.7,90,94.1a.45.45,0,0,0-.11-.19,1.15,1.15,0,0,0-.14-.27L82.49,81.58l5.16-21.77c.49-2.11-.63-3.15-2.44-3.83a9.25,9.25,0,0,1-1.48.13,7.48,7.48,0,0,1-4.31-1.34h-.3a4.27,4.27,0,0,0-3.7,1.56c-.06.07-.13.13-.19.21L61.17,77.81c-1,1.35-1.37,2.74-.05,3.68s2.65.2,3.61-1.15L76.41,64.77l.63.47-4.93,6.55-1.54,7.9A4.86,4.86,0,0,0,71,83.08l.09.2,0,0a5.8,5.8,0,0,0,1,1.29L82.8,97.94a5.27,5.27,0,0,0,.49.74l7.21,14.83c1.31,2.33,2.47,3,3.37,3a2.1,2.1,0,0,0,.85-.19C95.73,115.84,96.86,115.32,95.79,111.7Z"/><path class="cls-2" d="M83.76,41.83A6.75,6.75,0,0,0,77,48.57h0a6.75,6.75,0,1,0,6.75-6.75Z"/></g></g></svg>