<svg xmlns="http://www.w3.org/2000/svg" xmlns:xlink="http://www.w3.org/1999/xlink" viewBox="0 0 417.39 200.01"><defs><style>.cls-1{opacity:0.79;}.cls-1,.cls-10{font-size:22px;font-family:SegoeUI-Bold, Segoe UI;font-weight:700;}.cls-1,.cls-5{fill:#c86480;}.cls-2{letter-spacing:-0.05em;}.cls-3{letter-spacing:-0.07em;}.cls-4{fill:url(#linear-gradient);}.cls-6{fill:url(#linear-gradient-2);}.cls-7{fill:url(#linear-gradient-3);}.cls-8{fill:url(#linear-gradient-4);}.cls-10,.cls-9{fill:#f2ac2d;}.cls-10{opacity:0.81;}.cls-11,.cls-13{fill:#fff;}.cls-12{fill:#aaa9a9;}.cls-12,.cls-13{opacity:0.88;}</style><linearGradient id="linear-gradient" x1="31.96" y1="121.79" x2="147.6" y2="121.79" gradientUnits="userSpaceOnUse"><stop offset="0" stop-color="#fff"/><stop offset="0.08" stop-color="#f5e4e9"/><stop offset="0.22" stop-color="#e8bdc9"/><stop offset="0.36" stop-color="#dc9dae"/><stop offset="0.5" stop-color="#d3849a"/><stop offset="0.65" stop-color="#cd728b"/><stop offset="0.81" stop-color="#c96783"/><stop offset="1" stop-color="#c86480"/></linearGradient><linearGradient id="linear-gradient-2" x1="147.6" y1="121.79" x2="399.39" y2="121.79" gradientUnits="userSpaceOnUse"><stop offset="0" stop-color="#aaa9a9"/><stop offset="0.2" stop-color="#b5b4b4"/><stop offset="0.54" stop-color="#d1d1d1"/><stop offset="0.99" stop-color="#fff"/></linearGradient><linearGradient id="linear-gradient-3" x1="33.29" y1="36.75" x2="68.26" y2="36.75" gradientUnits="userSpaceOnUse"><stop offset="0" stop-color="#fff"/><stop offset="0.12" stop-color="#fffdfa"/><stop offset="0.26" stop-color="#fef7ec"/><stop offset="0.4" stop-color="#fceed4"/><stop offset="0.56" stop-color="#fae1b3"/><stop offset="0.72" stop-color="#f8d088"/><stop offset="0.89" stop-color="#f4bc55"/><stop offset="1" stop-color="#f2ac2d"/></linearGradient><linearGradient id="linear-gradient-4" x1="68.26" y1="36.75" x2="400.05" y2="36.75" gradientUnits="userSpaceOnUse"><stop offset="0" stop-color="#aaa9a9"/><stop offset="0.19" stop-color="#afaeae"/><stop offset="0.42" stop-color="#bdbcbc"/><stop offset="0.67" stop-color="#d5d4d4"/><stop offset="0.93" stop-color="#f5f5f5"/><stop offset="0.99" stop-color="#fff"/></linearGradient></defs><g id="Layer_2" data-name="Layer 2"><g id="Layer_1-2" data-name="Layer 1"><text class="cls-1" transform="translate(41.66 169.6)">28% OF ALL <tspan class="cls-2" x="128.68" y="0">F</tspan><tspan class="cls-3" x="138.93" y="0">AT</tspan><tspan x="164.22" y="0">AL CRASHES</tspan></text><rect class="cls-4" x="31.96" y="98.7" width="115.64" height="46.18"/><polygon class="cls-5" points="33.87 143.56 31.89 143.56 30.96 135.96 33.87 135.96 33.87 143.56"/><path class="cls-5" d="M30.49,142.92h3.8v2.39h-6.2A2.39,2.39,0,0,1,30.49,142.92Z"/><path class="cls-5" d="M32.93,128.28h3.8v2.4h-6.2A2.4,2.4,0,0,1,32.93,128.28Z"/><path class="cls-5" d="M30,105.87l-.73,16.31s1.9,15.43,1.46,15.87a1.79,1.79,0,0,0-.22,2.19c.55,1.23,3.57,1.88,3.71,1.3s.44-17.18.44-17.18l1-19.65Z"/><path class="cls-5" d="M30,105.87l-.73,16.31s1.9,15.43,1.46,15.87a2.18,2.18,0,0,0-.19,2.29c.44,1.27,3.54,1.78,3.68,1.2s.44-17.18.44-17.18l1-19.65Z"/><path class="cls-5" d="M21.69,93.64s-1.6.58-1.6,1a42.83,42.83,0,0,1-1.75,6.26,4.39,4.39,0,0,0-.43,1.6s-1.46,3.35-1.17,3.35,2.77-.58,2.91,0S21,102.23,21,102.23l2.48-5Z"/><path class="cls-5" d="M16.74,106.45s.44,3.21,1.6,3.5,0-4.08,0-4.08Z"/><path class="cls-5" d="M14.21,105s-3.23.07-3.65,1.2,4,.46,4,.46Z"/><path class="cls-5" d="M20.53,91.89s.87,1.9,1.31,2.92,4.51-2.62,4.51-2.62-2.18-1.61-2.18-2.33S20.53,91.89,20.53,91.89Z"/><path class="cls-5" d="M13.25,144.89A13.25,13.25,0,1,1,26.5,131.64,13.25,13.25,0,0,1,13.25,144.89Zm0-26.21a13,13,0,1,0,13,13A13,13,0,0,0,13.25,118.68Z"/><path class="cls-5" d="M54,144.89a13.25,13.25,0,1,1,13.25-13.25A13.25,13.25,0,0,1,54,144.89Zm0-26.21a13,13,0,1,0,13,13h0A13,13,0,0,0,54,118.68Z"/><circle class="cls-5" cx="13.25" cy="131.93" r="0.87"/><circle class="cls-5" cx="54.3" cy="131.93" r="0.87"/><path class="cls-5" d="M15,128.68a7.17,7.17,0,0,1-1,1.77,6.48,6.48,0,0,1,.69-1.88l6.34-14a3.29,3.29,0,0,1,2.82-1.78l17.58.36c1.1,0,2,.06,2,.07s.48.81,1,1.76l8.13,13.76a7.67,7.67,0,0,1,.9,1.8,7.11,7.11,0,0,1-1.14-1.64l-8.09-13.7a4,4,0,0,0-3-1.76l-17.22-.35a3.27,3.27,0,0,0-2.82,1.78Z"/><path class="cls-5" d="M39.2,133.78a1.26,1.26,0,0,1-1.44-1.71l4.71-16.59a7.57,7.57,0,0,1,.68-1.88,6.79,6.79,0,0,1-.4,2l-4.59,16.17a1.26,1.26,0,0,0,1.45,1.71l11-1.16a7,7,0,0,1,2-.07,7.08,7.08,0,0,1-2,.36Z"/><path class="cls-5" d="M22.2,118.5A7.16,7.16,0,0,1,20.88,117a7,7,0,0,1,1.49,1.3L35,131a7.14,7.14,0,0,1,1.3,1.52,6.51,6.51,0,0,1-1.51-1.32Z"/><rect class="cls-5" x="42.31" y="111.11" width="3.32" height="0.29" transform="translate(-74.93 124.45) rotate(-74.77)"/><path class="cls-5" d="M22.76,110.58a7.74,7.74,0,0,1-.61,2.14c-.12.09,0-.71.2-1.79l0-.27c.23-1.07-.13-2-.8-2a1.18,1.18,0,0,1-1.22-1.13,2.24,2.24,0,0,1,.14-1.13c.08,0,.15.44.15,1a1.15,1.15,0,0,0,1.26,1c.69,0,1.08.88.87,2Z"/><path class="cls-5" d="M39,106.74s0-.87,1.89-.43,7.72,1.6,8.15,1.45.29.88-1.6,1.31A7,7,0,0,1,43,108.2C42.51,107.91,39,106.74,39,106.74Z"/><path class="cls-5" d="M37.42,136.74a2.92,2.92,0,1,1,2.91-2.92A2.92,2.92,0,0,1,37.42,136.74Zm0-5.54A2.62,2.62,0,1,0,40,133.82h0A2.63,2.63,0,0,0,37.42,131.2Z"/><circle class="cls-5" cx="21.84" cy="89.86" r="3.49"/><path class="cls-5" d="M32.9,106.16s-10,5.83-9.9,7.72,7.72,12.23,7.72,12.23.58,3,1.16,3,4.23,1.32,4.37.44-1.16-1.89-1-2.47-6.4-11.21-6.4-11.21,14-5.24,11.08-9.76S32.9,106.16,32.9,106.16Z"/><path class="cls-5" d="M21.84,95.24l3.27-4s3.72-1.09,5.32,1.09,6,7.57,7.42,8.74,3.5,5.67,2.77,5.82-4.81-1.6-6.41-.44-4.66,1.31-4.8.73-8.88-10.34-8.88-11.65a1.53,1.53,0,0,1,.93-1.59Z"/><rect class="cls-5" x="20.82" y="103.76" width="0.87" height="5.53" rx="0.44" transform="translate(-86.27 91.06) rotate(-70.53)"/><path class="cls-5" d="M26.93,92.33a8.37,8.37,0,0,0-2.47,3.79,27.16,27.16,0,0,1-2.62,5.67L13,104.71s-.58,2.76.29,2.76,10.63-2,10.92-2.47,6.55-8.74,6.55-8.74S31.3,91.75,26.93,92.33Z"/><path class="cls-5" d="M19.67,85.81a.61.61,0,0,1-.3.15.21.21,0,0,1-.25-.17.87.87,0,0,1-.34.44c-.17.08-.43,0-.45-.18a.78.78,0,0,1-.18.39.27.27,0,0,1-.38,0,9.8,9.8,0,0,1,.05,1.21,1.5,1.5,0,0,0,.44,1.1A2.11,2.11,0,0,0,20,89a.5.5,0,0,1,.27,0c.22.09.21.4.21.64A1.78,1.78,0,0,0,22,91.32a.86.86,0,0,0,.66-.16c.17-.14.26-.37.45-.48s.68.08.91.35.45.61.8.66.82-.4,1-.84a4.94,4.94,0,0,0-.1-3.83C24.74,84.91,21.42,84.57,19.67,85.81Z"/><circle class="cls-5" cx="11.32" cy="106.45" r="1.45"/><circle class="cls-5" cx="18.24" cy="108.92" r="1.45"/><rect class="cls-6" x="147.6" y="98.7" width="251.79" height="46.18"/><rect class="cls-7" x="33.29" y="13.66" width="34.98" height="46.18"/><rect class="cls-8" x="68.26" y="13.66" width="331.79" height="46.18"/><polygon class="cls-9" points="34.87 58.47 32.9 58.47 31.96 50.87 34.87 50.87 34.87 58.47"/><path class="cls-9" d="M31.49,57.83h3.8v2.39h-6.2A2.39,2.39,0,0,1,31.49,57.83Z"/><path class="cls-9" d="M33.93,43.19h3.8v2.4h-6.2A2.39,2.39,0,0,1,33.93,43.19Z"/><path class="cls-9" d="M31,20.78l-.73,16.31S32.16,52.52,31.72,53a1.81,1.81,0,0,0-.22,2.2c.55,1.23,3.57,1.88,3.71,1.3s.44-17.18.44-17.18l1-19.65Z"/><path class="cls-9" d="M31,20.78l-.73,16.31S32.16,52.52,31.72,53a2.21,2.21,0,0,0-.19,2.3c.44,1.27,3.54,1.78,3.68,1.2s.44-17.18.44-17.18l1-19.65Z"/><path class="cls-9" d="M22.69,8.55s-1.6.58-1.6,1a42.83,42.83,0,0,1-1.75,6.26,4.39,4.39,0,0,0-.43,1.6s-1.46,3.35-1.17,3.35,2.77-.58,2.91,0S22,17.14,22,17.14l2.48-5Z"/><path class="cls-9" d="M17.74,21.36s.44,3.21,1.6,3.5,0-4.08,0-4.08Z"/><path class="cls-9" d="M15.21,19.91S12,20,11.56,21.11s4,.46,4,.46Z"/><path class="cls-9" d="M21.53,6.8s.87,1.9,1.31,2.92,4.51-2.63,4.51-2.63-2.18-1.6-2.18-2.32S21.53,6.8,21.53,6.8Z"/><path class="cls-9" d="M14.25,59.8A13.25,13.25,0,1,1,27.5,46.55,13.25,13.25,0,0,1,14.25,59.8Zm0-26.21a13,13,0,1,0,13,13A13,13,0,0,0,14.25,33.59Z"/><path class="cls-9" d="M55,59.8A13.25,13.25,0,1,1,68.26,46.55,13.25,13.25,0,0,1,55,59.8Zm0-26.21a13,13,0,1,0,13,13h0A13,13,0,0,0,55,33.59Z"/><circle class="cls-9" cx="14.25" cy="46.84" r="0.87"/><circle class="cls-9" cx="55.3" cy="46.84" r="0.87"/><path class="cls-9" d="M16,43.59a7.17,7.17,0,0,1-1,1.77,6.48,6.48,0,0,1,.69-1.88l6.34-14a3.29,3.29,0,0,1,2.82-1.78L42.47,28c1.1,0,2,.06,2,.07s.48.81,1,1.76l8.13,13.76a7.67,7.67,0,0,1,.9,1.8,7.11,7.11,0,0,1-1.14-1.64l-8.09-13.7a4,4,0,0,0-3-1.76L25.08,28a3.27,3.27,0,0,0-2.82,1.78Z"/><path class="cls-9" d="M40.2,48.69A1.26,1.26,0,0,1,38.76,47l4.71-16.59a7.37,7.37,0,0,1,.68-1.88,6.79,6.79,0,0,1-.4,2L39.16,46.64a1.26,1.26,0,0,0,1.45,1.71l11-1.17a7.19,7.19,0,0,1,2-.06,6.87,6.87,0,0,1-2,.35Z"/><path class="cls-9" d="M23.2,33.41a7.16,7.16,0,0,1-1.32-1.54,7,7,0,0,1,1.49,1.3L36,45.9a7.14,7.14,0,0,1,1.3,1.52,6.82,6.82,0,0,1-1.51-1.32Z"/><rect class="cls-9" x="43.31" y="26.02" width="3.32" height="0.29" transform="translate(7.91 62.68) rotate(-74.77)"/><path class="cls-9" d="M23.76,25.49a7.74,7.74,0,0,1-.61,2.14c-.12.09,0-.71.2-1.79l0-.27c.23-1.07-.13-1.95-.8-1.95a1.18,1.18,0,0,1-1.22-1.13,2.24,2.24,0,0,1,.14-1.13c.08,0,.15.44.15,1a1.15,1.15,0,0,0,1.26,1c.69,0,1.08.88.87,2Z"/><path class="cls-9" d="M40,21.65s0-.87,1.89-.43,7.72,1.6,8.15,1.45.29.88-1.6,1.31A7,7,0,0,1,44,23.11C43.51,22.82,40,21.65,40,21.65Z"/><path class="cls-9" d="M38.42,51.64a2.91,2.91,0,1,1,2.91-2.91A2.91,2.91,0,0,1,38.42,51.64Zm0-5.53A2.62,2.62,0,1,0,41,48.73h0A2.63,2.63,0,0,0,38.42,46.11Z"/><circle class="cls-9" cx="22.84" cy="4.77" r="3.49"/><path class="cls-9" d="M33.9,21.07s-10,5.82-9.9,7.72S31.72,41,31.72,41s.58,3,1.16,3,4.23,1.31,4.37.44-1.16-1.89-1-2.47-6.4-11.21-6.4-11.21,14-5.25,11.08-9.76S33.9,21.07,33.9,21.07Z"/><path class="cls-9" d="M22.84,10.15l3.27-4s3.72-1.09,5.32,1.09,6,7.57,7.42,8.74,3.5,5.67,2.77,5.82-4.81-1.6-6.41-.44-4.66,1.31-4.8.73-8.88-10.34-8.88-11.65a1.53,1.53,0,0,1,.93-1.59Z"/><rect class="cls-9" x="21.82" y="18.67" width="0.87" height="5.53" rx="0.44" transform="translate(-5.37 35.28) rotate(-70.53)"/><path class="cls-9" d="M27.93,7.24A8.37,8.37,0,0,0,25.46,11a27.16,27.16,0,0,1-2.62,5.67L14,19.62s-.58,2.76.29,2.76,10.63-2,10.92-2.47,6.55-8.74,6.55-8.74S32.3,6.66,27.93,7.24Z"/><path class="cls-9" d="M20.67.72a.71.71,0,0,1-.3.15A.21.21,0,0,1,20.12.7a.87.87,0,0,1-.34.44c-.17.08-.43,0-.45-.18a.78.78,0,0,1-.18.39.28.28,0,0,1-.38,0,9.8,9.8,0,0,1,.05,1.21,1.5,1.5,0,0,0,.44,1.1,2.11,2.11,0,0,0,1.7.22.5.5,0,0,1,.27,0c.22.09.21.4.21.64A1.78,1.78,0,0,0,23,6.23a.86.86,0,0,0,.66-.16c.17-.14.26-.37.45-.48s.68.08.91.35.45.61.8.66.82-.4,1-.84a4.94,4.94,0,0,0-.1-3.83C25.74-.19,22.42-.52,20.67.72Z"/><circle class="cls-9" cx="12.32" cy="21.36" r="1.45"/><circle class="cls-9" cx="19.24" cy="23.83" r="1.45"/><text class="cls-10" transform="translate(72.84 80.25)">1.6% OF ALL CRASHES</text><polyline class="cls-11" points="376.29 13.54 381.01 23.75 405.46 25.8 410.18 26.11 409.16 11.18 374.5 11.18"/><path class="cls-12" d="M309.67,45.06A14.68,14.68,0,0,0,339,46.32c0-.23,0-.47,0-.71v0c0-.17,0-.35,0-.53a14.68,14.68,0,0,0-29.36,0Z"/><path class="cls-12" d="M309.67,45.06A14.68,14.68,0,0,0,339,46.32c0-.23,0-.47,0-.71v0c0-.17,0-.35,0-.53a14.68,14.68,0,0,0-29.36,0Z"/><circle class="cls-13" cx="324.35" cy="45.06" r="8.01"/><circle class="cls-12" cx="324.35" cy="45.06" r="4.8"/><path class="cls-12" d="M388,45.06a14.68,14.68,0,0,0,29.3,1.26c0-.23,0-.47.05-.71v0c0-.17,0-.35,0-.53a14.68,14.68,0,0,0-29.36,0Z"/><path class="cls-12" d="M388,45.06a14.68,14.68,0,0,0,29.3,1.26c0-.23,0-.47.05-.71v0c0-.17,0-.35,0-.53a14.68,14.68,0,0,0-29.36,0Z"/><circle class="cls-13" cx="402.71" cy="45.06" r="8.01"/><circle class="cls-12" cx="402.71" cy="45.06" r="4.8"/><path class="cls-12" d="M305.87,42.44l4.83-.25,4.4-9.85,15.52-1.52,7.55,11.87L337.75,46l1.05,3,49.28.5V48h.42l.42-2.27h-3.77l2.72-3.54,9.65-9.85s16.57.5,16.78,0-.95-5.69-.95-5.69l-7.13-2.52-24.33-2.28c-5.34-10.23-10.17-15-10.17-15H309.23L306.29,25v0Z"/><path class="cls-12" d="M340.38,43.7s-6.3-14.14-11.12-14.14H317.52a4.84,4.84,0,0,0-4.2,2.78L308.5,43.7h3.77s3.15-10.6,6.71-10.86,9.65,0,9.65,0,2.1,0,3.36,3a95.55,95.55,0,0,0,5.51,9.64S342.05,47.24,340.38,43.7Z"/><path class="cls-12" d="M416.92,36.88s-.42-3.78-3.35-5.3l-19.3-1.26s-3.14.25-4.82,5L384,45.22v1.52h6.08S393,33.35,401.4,33.85h10.07s2.31,0,3.15,4.55Z"/><path class="cls-12" d="M371.62,8.34H307.24a2.58,2.58,0,0,1,2.31-2.78h59.77a2.58,2.58,0,0,1,2.3,2.78Z"/><path class="cls-13" d="M357.83,23.24h17.81a1.35,1.35,0,0,0,1.21-1.45,1.71,1.71,0,0,0-.11-.59l-2.82-7.64a5.6,5.6,0,0,0-5.06-4H358a1.7,1.7,0,0,0-1.52,1.83h0V21.68a1.45,1.45,0,0,0,1.31,1.56Z"/><path class="cls-13" d="M351,9.6H335.4a1,1,0,0,0-.9,1.08V22.16a1,1,0,0,0,.9,1.08H351a1,1,0,0,0,.9-1.08V10.68A1,1,0,0,0,351,9.6Z"/><polygon class="cls-12" points="305.98 25.01 305.98 25.05 333.04 25.52 333.74 6.83 308.92 6.83 305.98 25.01"/><path class="cls-13" d="M329.83,9.6H311.7a1,1,0,0,0-.89,1.08V22.16a1,1,0,0,0,.89,1.08h18.13a1,1,0,0,0,.9-1.08V10.68A1,1,0,0,0,329.83,9.6Z"/><path class="cls-13" d="M361.69,28h-6.14a.32.32,0,0,0-.28.35v.83a.31.31,0,0,0,.28.34h6.14a.32.32,0,0,0,.29-.34v-.83A.33.33,0,0,0,361.69,28Z"/><path class="cls-13" d="M342.4,28h-6.14a.33.33,0,0,0-.29.35v.83a.32.32,0,0,0,.29.34h6.14a.31.31,0,0,0,.28-.34v-.83A.32.32,0,0,0,342.4,28Z"/><polyline class="cls-11" points="375.75 98.94 380.47 109.16 404.92 111.2 409.64 111.52 408.62 96.58 373.96 96.58"/><path class="cls-12" d="M309.67,130a14.68,14.68,0,0,0,29.3,1.26c0-.24,0-.48,0-.72h0c0-.18,0-.35,0-.53a14.68,14.68,0,1,0-29.36,0Z"/><path class="cls-12" d="M309.67,130a14.68,14.68,0,0,0,29.3,1.26c0-.24,0-.48,0-.72h0c0-.18,0-.35,0-.53a14.68,14.68,0,1,0-29.36,0Z"/><circle class="cls-13" cx="324.35" cy="130.01" r="8.01"/><circle class="cls-12" cx="324.35" cy="130.01" r="4.8"/><path class="cls-12" d="M388,130a14.68,14.68,0,0,0,29.3,1.26c0-.24,0-.48.05-.72h0c0-.18,0-.35,0-.53A14.68,14.68,0,0,0,388,130Z"/><path class="cls-12" d="M388,130a14.68,14.68,0,0,0,29.3,1.26c0-.24,0-.48.05-.72h0c0-.18,0-.35,0-.53A14.68,14.68,0,0,0,388,130Z"/><circle class="cls-13" cx="402.71" cy="130.01" r="8.01"/><circle class="cls-12" cx="402.71" cy="130.01" r="4.8"/><path class="cls-12" d="M305.87,127.39l4.83-.26,4.4-9.85,15.52-1.51,7.55,11.87-.42,3.28,1.05,3,49.28.51v-1.52h.42l.42-2.27h-3.77l2.72-3.54,9.65-9.85s16.57.51,16.78,0-.95-5.68-.95-5.68l-7.13-2.53-24.33-2.27c-5.34-10.23-10.17-15-10.17-15H309.23L306.29,110v0Z"/><path class="cls-12" d="M340.38,128.65s-6.3-14.15-11.12-14.15H317.52a4.84,4.84,0,0,0-4.2,2.78l-4.82,11.37h3.77S315.42,118,319,117.79s9.65,0,9.65,0,2.1,0,3.36,3a95.05,95.05,0,0,0,5.51,9.63S342.05,132.19,340.38,128.65Z"/><path class="cls-12" d="M416.92,121.83s-.42-3.79-3.35-5.31l-19.3-1.26s-3.14.25-4.82,5L384,130.16v1.52h6.08S393,118.29,401.4,118.8h10.07s2.31,0,3.15,4.54Z"/><path class="cls-12" d="M371.62,93.29H307.24a2.57,2.57,0,0,1,2.31-2.78h59.77a2.57,2.57,0,0,1,2.3,2.78Z"/><path class="cls-13" d="M357.83,108.19h17.81a1.35,1.35,0,0,0,1.21-1.45,1.67,1.67,0,0,0-.11-.59l-2.82-7.64a5.58,5.58,0,0,0-5.06-4H358a1.69,1.69,0,0,0-1.52,1.82h0v10.25a1.46,1.46,0,0,0,1.31,1.57Z"/><path class="cls-13" d="M351,94.55H335.4a1,1,0,0,0-.9,1.08v11.48a1,1,0,0,0,.9,1.08H351a1,1,0,0,0,.9-1.08V95.63A1,1,0,0,0,351,94.55Z"/><polygon class="cls-12" points="305.98 109.96 305.98 110 333.04 110.46 333.74 91.77 308.92 91.77 305.98 109.96"/><path class="cls-13" d="M329.83,94.55H311.7a1,1,0,0,0-.89,1.08v11.48a1,1,0,0,0,.89,1.08h18.13a1,1,0,0,0,.9-1.08V95.63A1,1,0,0,0,329.83,94.55Z"/><path class="cls-13" d="M361.69,113h-6.14a.31.31,0,0,0-.28.34v.83a.31.31,0,0,0,.28.34h6.14a.32.32,0,0,0,.29-.34v-.83A.32.32,0,0,0,361.69,113Z"/><path class="cls-13" d="M342.4,113h-6.14a.32.32,0,0,0-.29.34v.83a.32.32,0,0,0,.29.34h6.14a.31.31,0,0,0,.28-.34v-.83A.31.31,0,0,0,342.4,113Z"/></g></g></svg>