<svg xmlns="http://www.w3.org/2000/svg" xmlns:xlink="http://www.w3.org/1999/xlink" viewBox="0 0 253.08 214.27"><defs><style>.cls-1,.cls-4,.cls-5{fill:none;}.cls-2{clip-path:url(#clip-path);}.cls-3{fill:#a0b2dc;}.cls-4{stroke:#fff;stroke-width:18px;}.cls-4,.cls-5{stroke-miterlimit:10;}.cls-5{stroke:#605e5f;stroke-width:10px;}.cls-6{fill:#f3ac2a;}.cls-7{fill:#fff;}</style><clipPath id="clip-path" transform="translate(32.01 25.92)"><circle class="cls-1" cx="81.46" cy="81.46" r="81.46"/></clipPath></defs><g id="Layer_2" data-name="Layer 2"><g id="Layer_2-2" data-name="Layer 2"><g class="cls-2"><circle class="cls-3" cx="113.48" cy="107.39" r="81.46"/><line class="cls-4" x1="29.8" y1="42.76" x2="86.97" y2="99.92"/><line class="cls-4" x1="66.2" y1="6.36" x2="132.67" y2="72.84"/><line class="cls-4" x1="194.94" y1="36.7" x2="14.52" y2="140.86"/><line class="cls-4" x1="219.24" y1="81.46" x2="170.33" y2="109.7"/><line class="cls-5" x1="225.92" y1="19.78" x2="2.47" y2="146.93"/><line class="cls-5" x1="29.8" y1="42.76" x2="197.78" y2="210.73"/><line class="cls-5" x1="71.18" y1="11.35" x2="223.23" y2="163.4"/><line class="cls-5" x1="250.61" y1="63.17" x2="27.16" y2="190.32"/><circle class="cls-6" cx="86.06" cy="99.02" r="11.48"/><path class="cls-7" d="M50.18,65.31h8.18l0,0a4.85,4.85,0,0,1,.55.09,2.25,2.25,0,0,1,1.24.75,2.74,2.74,0,0,1,.56,1.39c0,.11,0,.22,0,.33v10a.13.13,0,0,0,0,.06,1,1,0,0,1-.2.46,1,1,0,0,1-.6.34l-.23,0v.06c0,.3,0,.6,0,.9a1.66,1.66,0,0,1,0,.32,1,1,0,0,1-.53.69,1.23,1.23,0,0,1-.63.09.86.86,0,0,1-.51-.21,1,1,0,0,1-.37-.83c0-.32,0-.64,0-1V78.8H50.42v1a1.18,1.18,0,0,1,0,.27.94.94,0,0,1-.59.75,1.26,1.26,0,0,1-.77,0,.89.89,0,0,1-.54-.45,1.16,1.16,0,0,1-.15-.57v-1h-.13a.88.88,0,0,1-.76-.49,1.15,1.15,0,0,1-.14-.57V68.17a4.18,4.18,0,0,1,0-.61,2.42,2.42,0,0,1,.73-1.39,3.14,3.14,0,0,1,1.7-.81Zm3.87,8.3h4.66a1,1,0,0,0,.86-.41,1.21,1.21,0,0,0,.19-.66V69.47a1.24,1.24,0,0,0,0-.27.94.94,0,0,0-.57-.7,1.39,1.39,0,0,0-.49-.07H49.34a.94.94,0,0,0-.89.56,1.29,1.29,0,0,0-.1.51v3a1.33,1.33,0,0,0,0,.28,1,1,0,0,0,.49.69,1.15,1.15,0,0,0,.55.11Zm0-6.74H50.67a.26.26,0,0,0-.24.31.26.26,0,0,0,.29.21h6.73a.24.24,0,0,0,.23-.24.25.25,0,0,0-.2-.26H54.06Zm-5.71,9.85a1,1,0,1,0,1-1A1,1,0,0,0,48.35,76.72Zm10.38-1a1,1,0,1,0,1,1A1,1,0,0,0,58.73,75.69Z" transform="translate(32.01 25.92)"/></g></g></g></svg>