<svg xmlns="http://www.w3.org/2000/svg" xmlns:xlink="http://www.w3.org/1999/xlink" viewBox="0 0 384 220"><defs><style>.cls-1{fill:#935287;opacity:0.7;}.cls-2{fill:none;stroke-width:10px;}.cls-2,.cls-3{stroke:#fff;stroke-miterlimit:10;}.cls-3{fill:#fff;}</style></defs><g id="Layer_2" data-name="Layer 2"><g id="Layer_1-2" data-name="Layer 1"><image width="1000" height="573" transform="translate(0.03) scale(0.38)" xlink:href="../../../Online%20Visioning/Graphics/Photos%20for%20Cover%20Video/Harlingen%20Public%20Art.png"/><rect class="cls-1" width="384" height="220"/><ellipse class="cls-2" cx="192" cy="110" rx="64" ry="59.23"/><path class="cls-3" d="M226.48,77.44H193.7V75.53a1.7,1.7,0,1,0-3.4,0v1.91H157.52a3.39,3.39,0,0,0-3.39,3.39V84a3.39,3.39,0,0,0,3.39,3.39H158v38.14a3.4,3.4,0,0,0,3.4,3.39H190.3v5l-12.57,9.22a1.7,1.7,0,0,0,2,2.74l10.56-7.75v6.38a1.7,1.7,0,1,0,3.4,0v-6.38l10.56,7.75a1.73,1.73,0,0,0,1,.33,1.7,1.7,0,0,0,1-3.07l-12.57-9.22v-5h28.92a3.4,3.4,0,0,0,3.4-3.39V87.37h.46A3.39,3.39,0,0,0,229.87,84V80.83A3.39,3.39,0,0,0,226.48,77.44Zm-3.86,48.07H161.38V87.37h61.24v38.14ZM226.48,84h-69V80.83h69V84Z"/></g></g></svg>