<svg xmlns="http://www.w3.org/2000/svg" viewBox="0 0 1714.21 452.72"><defs><style>.cls-1,.cls-2,.cls-3{fill:none;stroke:#19a6b7;stroke-miterlimit:10;}.cls-1{stroke-width:3.6px;}.cls-2{stroke-width:4.2px;stroke-dasharray:5.88;}.cls-3{stroke-width:3px;}.cls-4{fill:#19a6b7;}.cls-5{fill:#d6eef7;}.cls-6{fill:#fff;}.cls-7{font-size:28.8px;}.cls-23,.cls-27,.cls-7{fill:#231f20;font-family:SegoeUI-Bold, Segoe UI;font-weight:700;}.cls-8{letter-spacing:-0.01em;}.cls-9{letter-spacing:0em;}.cls-10{letter-spacing:0em;}.cls-11{fill:#a1b2dc;}.cls-12{letter-spacing:0.04em;}.cls-13{letter-spacing:0em;}.cls-14{letter-spacing:-0.02em;}.cls-15{letter-spacing:-0.01em;}.cls-16{letter-spacing:0.04em;}.cls-17{letter-spacing:0.02em;}.cls-18{letter-spacing:-0.03em;}.cls-19{letter-spacing:0em;}.cls-20{letter-spacing:-0.02em;}.cls-21{fill:#5bb9e3;}.cls-22{fill:#09b591;}.cls-23{font-size:29.26px;}.cls-24{letter-spacing:0.03em;}.cls-25{letter-spacing:0em;}.cls-26{fill:#e4c94b;}.cls-27{font-size:27.33px;}.cls-28{letter-spacing:0em;}</style></defs><g id="Layer_2" data-name="Layer 2"><polyline class="cls-1" points="1701.19 237.94 115.92 237.94 12.77 237.94"/><line class="cls-2" x1="119.7" y1="238.34" x2="119.7" y2="293.75"/><polyline class="cls-3" points="489.38 237.94 42.51 237.94 23.48 237.94"/><polygon class="cls-4" points="471.45 222.68 486.72 237.94 471.45 253.2 484.41 253.2 499.67 237.94 484.41 222.68 471.45 222.68"/><path class="cls-4" d="M24.05,226.66a11.28,11.28,0,1,0,11.27,11.28A11.28,11.28,0,0,0,24.05,226.66Z"/><line class="cls-2" x1="365.14" y1="238.56" x2="365.14" y2="293.96"/><line class="cls-2" x1="610.58" y1="238.33" x2="610.58" y2="293.74"/><line class="cls-2" x1="856.02" y1="238.33" x2="856.02" y2="293.74"/><polyline class="cls-3" points="1223.72 237.94 784.29 237.94 755.02 237.94"/><polygon class="cls-4" points="1205.79 222.68 1221.06 237.94 1205.79 253.2 1218.74 253.2 1234 237.94 1218.74 222.68 1205.79 222.68"/><line class="cls-2" x1="1101.46" y1="238.01" x2="1101.46" y2="293.41"/><polyline class="cls-3" points="1475.58 237.94 1036.15 237.94 1006.89 237.94"/><polygon class="cls-4" points="1457.66 222.68 1472.92 237.94 1457.66 253.2 1470.61 253.2 1485.87 237.94 1470.61 222.68 1457.66 222.68"/><line class="cls-2" x1="1346.9" y1="238.73" x2="1346.9" y2="294.13"/><polyline class="cls-3" points="1698.39 237.94 1280.64 237.94 1252.76 237.94"/><circle class="cls-4" cx="1697.83" cy="237.94" r="11.28"/><line class="cls-2" x1="1592.34" y1="240.39" x2="1592.34" y2="295.8"/></g><g id="Layer_3" data-name="Layer 3"><rect class="cls-5" x="9.7" y="10.9" width="1692.64" height="77.62"/><path class="cls-6" d="M1700.34,12.9V86.52H11.7V12.9H1700.34m4-4H7.7V90.52H1704.34V8.9Z"/><text class="cls-7" transform="translate(671.21 57.81)">Public In<tspan class="cls-8" x="117.66" y="0">v</tspan><tspan class="cls-9" x="132.99" y="0">ol</tspan><tspan class="cls-8" x="158.78" y="0">v</tspan><tspan x="174.11" y="0">ement P</tspan><tspan class="cls-10" x="285.92" y="0">r</tspan><tspan x="297.27" y="0">ocess</tspan></text><rect class="cls-11" x="9.7" y="274.19" width="220" height="168"/><path class="cls-6" d="M227.7,276.19v164H11.7v-164h216m4-4H7.7v172h224v-172Z"/><text class="cls-7" transform="translate(75.38 331.72)">Online<tspan x="-19.04" y="34.56">Visioning</tspan><tspan x="-1.98" y="69.12">Su</tspan><tspan class="cls-12" x="31.59" y="69.12">r</tspan><tspan class="cls-8" x="44.21" y="69.12">v</tspan><tspan class="cls-13" x="59.53" y="69.12">ey</tspan></text><rect class="cls-11" x="255.14" y="274.19" width="220" height="168"/><path class="cls-6" d="M473.14,276.19v164h-216v-164h216m4-4h-224v172h224v-172Z"/><text class="cls-7" transform="translate(284.44 349)"><tspan class="cls-14">S</tspan><tspan class="cls-9" x="15.43" y="0">ta</tspan><tspan class="cls-15" x="42.13" y="0">k</tspan><tspan x="57.83" y="0">eholder</tspan><tspan x="10.28" y="34.56">In</tspan><tspan class="cls-10" x="36.83" y="34.56">t</tspan><tspan x="47.93" y="34.56">e</tspan><tspan class="cls-16" x="63.51" y="34.56">r</tspan><tspan x="76.12" y="34.56">views</tspan></text><rect class="cls-11" x="1236.9" y="274.19" width="220" height="168"/><path class="cls-6" d="M1454.9,276.19v164h-216v-164h216m4-4h-224v172h224v-172Z"/><text class="cls-7" transform="translate(1278.04 331.72)">Dra<tspan class="cls-17" x="48.19" y="0">f</tspan><tspan class="cls-9" x="59.78" y="0">t Plan</tspan><tspan x="2.59" y="34.56">Comment</tspan><tspan class="cls-18" x="25.06" y="69.12">P</tspan><tspan x="41.89" y="69.12">e</tspan><tspan class="cls-19" x="57.47" y="69.12">r</tspan><tspan x="69.05" y="69.12">iod</tspan></text><rect class="cls-11" x="1482.34" y="274.19" width="220" height="168"/><path class="cls-6" d="M1700.34,276.19v164h-216v-164h216m4-4h-224v172h224v-172Z"/><text class="cls-7" transform="translate(1526.84 366.28)">Final Plan</text><rect class="cls-11" x="746.02" y="274.19" width="220" height="168"/><path class="cls-6" d="M964,276.19v164H748v-164H964m4-4H744v172H968v-172Z"/><text class="cls-7" transform="translate(775.32 331.72)"><tspan class="cls-14">S</tspan><tspan class="cls-9" x="15.43" y="0">ta</tspan><tspan class="cls-15" x="42.13" y="0">k</tspan><tspan x="57.83" y="0">eholder</tspan><tspan x="17.22" y="34.56">Feed</tspan><tspan class="cls-8" x="81.19" y="34.56">b</tspan><tspan x="98.77" y="34.56">ack</tspan><tspan class="cls-20" x="32.79" y="69.12">R</tspan><tspan x="50.88" y="69.12">esults</tspan></text><rect class="cls-11" x="991.46" y="274.19" width="220" height="168"/><path class="cls-6" d="M1209.46,276.19v164h-216v-164h216m4-4h-224v172h224v-172Z"/><text class="cls-7" transform="translate(1028.4 331.72)">Conditions<tspan x="17.87" y="34.56">Analysis</tspan><tspan class="cls-20" x="25.14" y="69.12">R</tspan><tspan x="43.23" y="69.12">esults</tspan></text><rect class="cls-11" x="500.58" y="274.19" width="220" height="168"/><path class="cls-6" d="M718.58,276.19v164h-216v-164h216m4-4h-224v172h224v-172Z"/><text class="cls-7" transform="translate(571.68 331.72)">Initial<tspan x="-24.45" y="34.56">Visioning</tspan><tspan class="cls-20" x="-9.01" y="69.12">R</tspan><tspan x="9.08" y="69.12">esults</tspan></text><rect class="cls-21" x="9.7" y="110.51" width="465.29" height="104.98"/><path class="cls-6" d="M473,112.51v101H11.7v-101H473m4-4H7.7v109H477v-109Z"/><text class="cls-7" transform="translate(78.77 170.09)">Public Visioning P<tspan class="cls-10" x="243.46" y="0">r</tspan><tspan class="cls-9" x="254.81" y="0">ocess</tspan></text><rect class="cls-22" x="500.58" y="163.55" width="710.88" height="48.21"/><path class="cls-6" d="M1209.46,165.55v44.21H502.58V165.55h706.88m4-4H498.58v52.21h714.88V161.55Z"/><text class="cls-23" transform="translate(699.44 196.91) scale(0.98 1)">Vi<tspan class="cls-24" x="27.83" y="0">r</tspan><tspan x="40.31" y="0">tual Open House #1</tspan></text><rect class="cls-21" x="500.58" y="110.51" width="710.88" height="48.21"/><path class="cls-6" d="M1209.46,112.51v44.21H502.58V112.51h706.88m4-4H498.58v52.21h714.88V108.51Z"/><text class="cls-23" transform="translate(617.89 144.19) scale(0.98 1)">Public Visioning P<tspan class="cls-25" x="247.32" y="0">r</tspan><tspan x="258.85" y="0">ocess Continues</tspan></text><rect class="cls-22" x="1236.9" y="110.51" width="220" height="103.43"/><path class="cls-6" d="M1454.9,112.51v99.43h-216V112.51h216m4-4h-224V215.94h224V108.51Z"/><text class="cls-23" transform="translate(1300.9 151.86) scale(0.98 1)">Vi<tspan class="cls-24" x="27.83" y="0">r</tspan><tspan x="40.31" y="0">tual</tspan><tspan x="-58.7" y="35.11">Open House #2</tspan></text><rect class="cls-26" x="1482.34" y="110.51" width="220" height="103.69"/><path class="cls-6" d="M1700.34,112.51V212.2h-216V112.51h216m4-4h-224V216.2h224V108.51Z"/><text class="cls-27" transform="translate(1542.03 152.74) scale(1.05 1)">Council<tspan x="-33.59" y="32.79">P</tspan><tspan class="cls-28" x="-16.81" y="32.79">r</tspan><tspan x="-6.04" y="32.79">esentation</tspan></text></g></svg>