<svg xmlns="http://www.w3.org/2000/svg" viewBox="0 0 1701.4 435.28"><defs><style>.cls-1,.cls-2,.cls-3{fill:none;stroke:#19a6b7;stroke-miterlimit:10;}.cls-1{stroke-width:3.6px;}.cls-2{stroke-width:4.2px;stroke-dasharray:5.88;}.cls-3{stroke-width:3px;}.cls-4{fill:#19a6b7;}.cls-5{fill:#d6eef7;}.cls-6{fill:#fff;}.cls-7{font-size:28.8px;}.cls-23,.cls-27,.cls-7{fill:#4c4c4d;font-family:SegoeUI-Bold, Segoe UI;font-weight:700;}.cls-8{letter-spacing:-0.01em;}.cls-9{letter-spacing:0em;}.cls-10{letter-spacing:0em;}.cls-11{fill:#a1b2dc;}.cls-12{letter-spacing:0.04em;}.cls-13{letter-spacing:0em;}.cls-14{letter-spacing:-0.02em;}.cls-15{letter-spacing:-0.01em;}.cls-16{letter-spacing:0.04em;}.cls-17{letter-spacing:0.02em;}.cls-18{letter-spacing:-0.03em;}.cls-19{letter-spacing:0em;}.cls-20{letter-spacing:-0.02em;}.cls-21{fill:#5bb9e3;}.cls-22{fill:#09b591;}.cls-23{font-size:29.26px;}.cls-24{letter-spacing:0.03em;}.cls-25{letter-spacing:0em;}.cls-26{fill:#e4c94b;}.cls-27{font-size:27.33px;}.cls-28{letter-spacing:0em;}</style></defs><g id="Layer_2" data-name="Layer 2"><g id="Layer_2-2" data-name="Layer 2"><polyline class="cls-1" points="1693.49 229.04 108.21 229.04 5.06 229.04"/><line class="cls-2" x1="112" y1="229.44" x2="112" y2="284.84"/><polyline class="cls-3" points="481.68 229.04 34.81 229.04 15.78 229.04"/><polygon class="cls-4" points="463.75 213.78 479.02 229.04 463.75 244.3 476.7 244.3 491.96 229.04 476.7 213.78 463.75 213.78"/><path class="cls-4" d="M16.34,217.76A11.28,11.28,0,1,0,27.62,229,11.28,11.28,0,0,0,16.34,217.76Z"/><line class="cls-2" x1="357.44" y1="229.66" x2="357.44" y2="285.06"/><line class="cls-2" x1="602.88" y1="229.43" x2="602.88" y2="284.84"/><line class="cls-2" x1="848.32" y1="229.43" x2="848.32" y2="284.84"/><polyline class="cls-3" points="1216.01 229.04 776.58 229.04 747.32 229.04"/><polygon class="cls-4" points="1198.09 213.78 1213.35 229.04 1198.09 244.3 1211.04 244.3 1226.3 229.04 1211.04 213.78 1198.09 213.78"/><line class="cls-2" x1="1093.76" y1="229.11" x2="1093.76" y2="284.51"/><polyline class="cls-3" points="1467.88 229.04 1028.45 229.04 999.19 229.04"/><polygon class="cls-4" points="1449.96 213.78 1465.22 229.04 1449.96 244.3 1462.91 244.3 1478.17 229.04 1462.91 213.78 1449.96 213.78"/><line class="cls-2" x1="1339.2" y1="229.83" x2="1339.2" y2="285.23"/><polyline class="cls-3" points="1690.69 229.04 1272.94 229.04 1245.06 229.04"/><circle class="cls-4" cx="1690.13" cy="229.04" r="11.28"/><line class="cls-2" x1="1584.64" y1="231.49" x2="1584.64" y2="286.9"/></g><g id="Layer_3" data-name="Layer 3"><rect class="cls-5" x="2" y="2" width="1692.64" height="77.62"/><path class="cls-6" d="M1692.64,4V77.62H4V4H1692.64m4-4H0V81.62H1696.64V0Z"/><text class="cls-7" transform="translate(663.51 48.91)">Public In<tspan class="cls-8" x="117.66" y="0">v</tspan><tspan class="cls-9" x="132.99" y="0">ol</tspan><tspan class="cls-8" x="158.78" y="0">v</tspan><tspan x="174.11" y="0">ement P</tspan><tspan class="cls-10" x="285.92" y="0">r</tspan><tspan x="297.27" y="0">ocess</tspan></text><rect class="cls-11" x="2" y="265.28" width="220" height="168"/><path class="cls-6" d="M220,267.28v164H4v-164H220m4-4H0v172H224v-172Z"/><text class="cls-7" transform="translate(67.68 322.82)">Online<tspan x="-19.04" y="34.56">Visioning</tspan><tspan x="-1.98" y="69.12">Su</tspan><tspan class="cls-12" x="31.59" y="69.12">r</tspan><tspan class="cls-8" x="44.21" y="69.12">v</tspan><tspan class="cls-13" x="59.53" y="69.12">ey</tspan></text><rect class="cls-11" x="247.44" y="265.28" width="220" height="168"/><path class="cls-6" d="M465.44,267.28v164h-216v-164h216m4-4h-224v172h224v-172Z"/><text class="cls-7" transform="translate(276.73 340.1)"><tspan class="cls-14">S</tspan><tspan class="cls-9" x="15.43" y="0">ta</tspan><tspan class="cls-15" x="42.13" y="0">k</tspan><tspan x="57.83" y="0">eholder</tspan><tspan x="10.28" y="34.56">In</tspan><tspan class="cls-10" x="36.83" y="34.56">t</tspan><tspan x="47.93" y="34.56">e</tspan><tspan class="cls-16" x="63.51" y="34.56">r</tspan><tspan x="76.12" y="34.56">views</tspan></text><rect class="cls-11" x="1229.2" y="265.28" width="220" height="168"/><path class="cls-6" d="M1447.2,267.28v164h-216v-164h216m4-4h-224v172h224v-172Z"/><text class="cls-7" transform="translate(1270.33 322.82)">Dra<tspan class="cls-17" x="48.19" y="0">f</tspan><tspan class="cls-9" x="59.78" y="0">t Plan</tspan><tspan x="2.59" y="34.56">Comment</tspan><tspan class="cls-18" x="25.06" y="69.12">P</tspan><tspan x="41.89" y="69.12">e</tspan><tspan class="cls-19" x="57.47" y="69.12">r</tspan><tspan x="69.05" y="69.12">iod</tspan></text><rect class="cls-11" x="1474.64" y="265.28" width="220" height="168"/><path class="cls-6" d="M1692.64,267.28v164h-216v-164h216m4-4h-224v172h224v-172Z"/><text class="cls-7" transform="translate(1519.13 357.38)">Final Plan</text><rect class="cls-11" x="738.32" y="265.28" width="220" height="168"/><path class="cls-6" d="M956.32,267.28v164h-216v-164h216m4-4h-224v172h224v-172Z"/><text class="cls-7" transform="translate(767.61 322.82)"><tspan class="cls-14">S</tspan><tspan class="cls-9" x="15.43" y="0">ta</tspan><tspan class="cls-15" x="42.13" y="0">k</tspan><tspan x="57.83" y="0">eholder</tspan><tspan x="17.22" y="34.56">Feed</tspan><tspan class="cls-8" x="81.19" y="34.56">b</tspan><tspan x="98.77" y="34.56">ack</tspan><tspan class="cls-20" x="32.79" y="69.12">R</tspan><tspan x="50.88" y="69.12">esults</tspan></text><rect class="cls-11" x="983.76" y="265.28" width="220" height="168"/><path class="cls-6" d="M1201.76,267.28v164h-216v-164h216m4-4h-224v172h224v-172Z"/><text class="cls-7" transform="translate(1020.7 322.82)">Conditions<tspan x="17.87" y="34.56">Analysis</tspan><tspan class="cls-20" x="25.14" y="69.12">R</tspan><tspan x="43.23" y="69.12">esults</tspan></text><rect class="cls-11" x="492.88" y="265.28" width="220" height="168"/><path class="cls-6" d="M710.88,267.28v164h-216v-164h216m4-4h-224v172h224v-172Z"/><text class="cls-7" transform="translate(563.98 322.82)">Initial<tspan x="-24.45" y="34.56">Visioning</tspan><tspan class="cls-20" x="-9.01" y="69.12">R</tspan><tspan x="9.08" y="69.12">esults</tspan></text><rect class="cls-21" x="2" y="101.61" width="465.29" height="104.98"/><path class="cls-6" d="M465.29,103.61v101H4v-101H465.29m4-4H0v109H469.29v-109Z"/><text class="cls-7" transform="translate(71.06 161.19)">Public Visioning P<tspan class="cls-10" x="243.46" y="0">r</tspan><tspan class="cls-9" x="254.81" y="0">ocess</tspan></text><rect class="cls-22" x="492.88" y="154.65" width="710.88" height="48.21"/><path class="cls-6" d="M1201.76,156.65v44.21H494.88V156.65h706.88m4-4H490.88v52.21h714.88V152.65Z"/><text class="cls-23" transform="translate(691.74 188.01) scale(0.98 1)">Vi<tspan class="cls-24" x="27.83" y="0">r</tspan><tspan x="40.31" y="0">tual Open House #1</tspan></text><rect class="cls-21" x="492.88" y="101.61" width="710.88" height="48.21"/><path class="cls-6" d="M1201.76,103.61v44.21H494.88V103.61h706.88m4-4H490.88v52.21h714.88V99.61Z"/><text class="cls-23" transform="translate(610.19 135.29) scale(0.98 1)">Public Visioning P<tspan class="cls-25" x="247.32" y="0">r</tspan><tspan x="258.85" y="0">ocess Continues</tspan></text><rect class="cls-22" x="1229.2" y="101.61" width="220" height="103.43"/><path class="cls-6" d="M1447.2,103.61V203h-216V103.61h216m4-4h-224V207h224V99.61Z"/><text class="cls-23" transform="translate(1293.2 142.96) scale(0.98 1)">Vi<tspan class="cls-24" x="27.83" y="0">r</tspan><tspan x="40.31" y="0">tual</tspan><tspan x="-58.7" y="35.11">Open House #2</tspan></text><rect class="cls-26" x="1474.64" y="101.61" width="220" height="103.69"/><path class="cls-6" d="M1692.64,103.61V203.3h-216V103.61h216m4-4h-224V207.3h224V99.61Z"/><text class="cls-27" transform="translate(1534.33 143.84) scale(1.05 1)">Council<tspan x="-33.59" y="32.79">P</tspan><tspan class="cls-28" x="-16.81" y="32.79">r</tspan><tspan x="-6.04" y="32.79">esentation</tspan></text></g></g></svg>