<svg xmlns="http://www.w3.org/2000/svg" viewBox="0 0 1715.74 490.32"><defs><style>.cls-1,.cls-3,.cls-4{fill:#167085;}.cls-1,.cls-2,.cls-4{stroke:#167085;stroke-miterlimit:10;}.cls-1{stroke-width:3.6px;}.cls-2{fill:none;stroke-width:4.2px;stroke-dasharray:10 8;}.cls-5{fill:#5ab9e3;}.cls-6{font-size:34px;font-family:SegoeUI-BoldItalic, Segoe UI;font-style:italic;}.cls-11,.cls-20,.cls-22,.cls-33,.cls-6{fill:#222223;}.cls-11,.cls-20,.cls-22,.cls-30,.cls-33,.cls-37,.cls-6{font-weight:700;}.cls-7{letter-spacing:0em;}.cls-8{letter-spacing:-0.07em;}.cls-9{letter-spacing:-0.01em;}.cls-10{fill:#a1b2dc;}.cls-11{font-size:28.8px;}.cls-11,.cls-20,.cls-22,.cls-30,.cls-33,.cls-37{font-family:SegoeUI-Bold, Segoe UI;}.cls-12{letter-spacing:0.04em;}.cls-13{letter-spacing:-0.01em;}.cls-14{letter-spacing:0em;}.cls-15{letter-spacing:-0.02em;}.cls-16{letter-spacing:0em;}.cls-17{letter-spacing:-0.01em;}.cls-18{letter-spacing:0em;}.cls-19{letter-spacing:0.04em;}.cls-20{font-size:24px;}.cls-21{letter-spacing:-0.01em;}.cls-22{font-size:28px;}.cls-23{letter-spacing:-0.02em;}.cls-24{letter-spacing:-0.01em;}.cls-25{letter-spacing:-0.08em;}.cls-26{letter-spacing:0.03em;}.cls-27{letter-spacing:-0.03em;}.cls-28{letter-spacing:0em;}.cls-29{fill:#103c44;}.cls-30,.cls-33{font-size:31px;}.cls-30,.cls-37{fill:#fff;}.cls-31{fill:#8fd6ef;}.cls-32{fill:#f2764f;}.cls-34{letter-spacing:0.02em;}.cls-35{letter-spacing:0em;}.cls-36{fill:#f2ac2d;}.cls-37{font-size:15px;}</style></defs><g id="Layer_2" data-name="Layer 2"><polyline class="cls-1" points="1701.77 256.07 120.48 256.07 17.59 256.07"/><line class="cls-2" x1="125.32" y1="257.07" x2="125.32" y2="347.79"/><line class="cls-2" x1="366.46" y1="257.07" x2="366.46" y2="347.79"/><line class="cls-2" x1="615.08" y1="257.07" x2="615.08" y2="347.79"/><line class="cls-2" x1="857.81" y1="257.07" x2="857.81" y2="347.79"/><line class="cls-2" x1="1089.91" y1="257.07" x2="1089.91" y2="347.79"/><line class="cls-2" x1="1340.73" y1="257.07" x2="1340.73" y2="348.06"/><line class="cls-2" x1="1589.41" y1="257.07" x2="1589.41" y2="347.79"/><polygon class="cls-3" points="478.29 239.68 494.69 256.07 478.29 272.45 492.2 272.45 508.59 256.07 492.2 239.68 478.29 239.68"/><polygon class="cls-3" points="1205.85 239.68 1222.25 256.07 1205.85 272.45 1219.77 272.45 1236.15 256.07 1219.77 239.68 1205.85 239.68"/><polygon class="cls-3" points="1456.11 239.68 1472.51 256.07 1456.11 272.45 1470.02 272.45 1486.41 256.07 1470.02 239.68 1456.11 239.68"/><circle class="cls-4" cx="22.33" cy="256.33" r="7.54"/><circle class="cls-4" cx="1695.11" cy="256.07" r="7.54"/></g><g id="Layer_3" data-name="Layer 3"><rect class="cls-5" x="12.31" y="12.15" width="1689.11" height="85.66"/><text class="cls-6" transform="translate(597.57 70.47)">PUBLIC IN<tspan class="cls-7" x="165.09" y="0">V</tspan><tspan x="187.8" y="0">O</tspan><tspan class="cls-8" x="213.6" y="0">L</tspan><tspan x="228.77" y="0">VEMENT P</tspan><tspan class="cls-9" x="394.92" y="0">R</tspan><tspan x="416.3" y="0">OCESS</tspan></text><rect class="cls-10" x="13.32" y="324.3" width="224" height="150.72"/><text class="cls-11" transform="translate(81 375.43)">Online<tspan x="-19.04" y="30">Visioning</tspan><tspan x="-1.98" y="60">Su</tspan><tspan class="cls-12" x="31.59" y="60">r</tspan><tspan class="cls-13" x="44.21" y="60">v</tspan><tspan class="cls-14" x="59.53" y="60">ey</tspan></text><rect class="cls-10" x="254.46" y="324.3" width="224" height="150.72"/><text class="cls-11" transform="translate(285.75 392.71)"><tspan class="cls-15">S</tspan><tspan class="cls-16" x="15.43" y="0">ta</tspan><tspan class="cls-17" x="42.13" y="0">k</tspan><tspan x="57.83" y="0">eholder</tspan><tspan x="10.28" y="30">In</tspan><tspan class="cls-18" x="36.83" y="30">t</tspan><tspan x="47.93" y="30">e</tspan><tspan class="cls-19" x="63.51" y="30">r</tspan><tspan x="76.12" y="30">views</tspan></text><rect class="cls-10" x="503.08" y="324.3" width="224" height="87.12"/><text class="cls-20" transform="translate(538.54 367.24)">MTP G<tspan class="cls-21" x="75.46" y="0">o</tspan><tspan x="89.89" y="0">als &amp; </tspan><tspan x="18.47" y="25">Objecti</tspan><tspan class="cls-21" x="99.04" y="25">v</tspan><tspan x="111.81" y="25">es</tspan></text><rect class="cls-10" x="742.04" y="324.3" width="224" height="87.12"/><rect class="cls-10" x="502.35" y="419.79" width="701.42" height="54.69"/><text class="cls-22" transform="translate(647.89 457.67)">Ongoing <tspan class="cls-23" x="122.58" y="0">S</tspan><tspan x="137.58" y="0">ta</tspan><tspan class="cls-24" x="163.54" y="0">k</tspan><tspan x="178.8" y="0">eholder Feed</tspan><tspan class="cls-21" x="349.43" y="0">b</tspan><tspan x="366.52" y="0">ack</tspan></text><rect class="cls-10" x="1228.73" y="324.3" width="224" height="150.72"/><rect class="cls-10" x="1477.41" y="324.3" width="224" height="150.72"/><text class="cls-22" transform="translate(1488.01 363.14)"><tspan class="cls-25">T</tspan><tspan x="14.3" y="0">ranspo</tspan><tspan class="cls-26" x="104.25" y="0">r</tspan><tspan x="116.2" y="0">tation </tspan><tspan class="cls-27" x="19.47" y="30">P</tspan><tspan x="35.83" y="30">olicy B</tspan><tspan class="cls-21" x="123.05" y="30">o</tspan><tspan x="139.89" y="30">a</tspan><tspan class="cls-28" x="154.96" y="30">r</tspan><tspan x="165.99" y="30">d</tspan><tspan x="-1.55" y="60">P</tspan><tspan class="cls-28" x="15.65" y="60">r</tspan><tspan x="26.68" y="60">esentation &amp; </tspan><tspan x="6.75" y="90">Plan Adoption</tspan></text><rect class="cls-29" x="12.3" y="109.76" width="465.66" height="108.98"/><rect class="cls-3" x="502.59" y="109.76" width="701.18" height="108.98"/><text class="cls-30" transform="translate(127.89 175.8)">Public Visioning</text><text class="cls-30" transform="translate(719.33 175.8)">Plan De<tspan class="cls-21" x="111.47" y="0">v</tspan><tspan x="127.97" y="0">elopment</tspan></text><rect class="cls-31" x="1228.54" y="109.76" width="224.38" height="108.98"/><rect class="cls-32" x="1477.41" y="109.76" width="224" height="108.98"/><text class="cls-30" transform="translate(1515.1 172.93) scale(1.05 1)">Final Plan</text><text class="cls-20" transform="translate(789.85 367.24)">Conditions <tspan x="18.2" y="25">Analysis</tspan></text><rect class="cls-10" x="979.6" y="324.3" width="224" height="87.12"/><text class="cls-20" transform="translate(986.9 378.24)"><tspan class="cls-23">R</tspan><tspan x="15.07" y="0">ecommendations</tspan></text><text class="cls-33" transform="translate(1270.76 172.93)">Dra<tspan class="cls-34" x="51.87" y="0">f</tspan><tspan x="64.35" y="0">t Plan</tspan></text><text class="cls-22" transform="translate(1300.31 379.43)">Public<tspan x="-24.01" y="30">Comment</tspan><tspan class="cls-27" x="-2.16" y="60">P</tspan><tspan x="14.21" y="60">e</tspan><tspan class="cls-35" x="29.35" y="60">r</tspan><tspan x="40.61" y="60">iod</tspan></text><rect class="cls-36" x="1360.09" y="279.09" width="92.65" height="27.76"/><polygon class="cls-36" points="1342.57 292.97 1370.82 316.91 1370.82 269.03 1342.57 292.97"/><text class="cls-37" transform="translate(1353.43 298.44)">WE ARE HERE</text></g></svg>