<svg xmlns="http://www.w3.org/2000/svg" viewBox="0 0 1715.74 459.43"><defs><style>.cls-1,.cls-3,.cls-4,.cls-5,.cls-6{fill:none;stroke:#19a6b7;stroke-miterlimit:10;}.cls-1{stroke-width:1.93px;}.cls-2{fill:#19a6b7;}.cls-3{stroke-width:3.6px;}.cls-4{stroke-width:4.2px;stroke-dasharray:8 4;}.cls-5{stroke-width:1.87px;}.cls-6{stroke-width:1.93px;}.cls-7{fill:#5ab9e3;}.cls-8{font-size:34px;font-family:SegoeUI-BoldItalic, Segoe UI;font-style:italic;}.cls-31,.cls-36,.cls-8{fill:#103c44;}.cls-13,.cls-22,.cls-24,.cls-33,.cls-36,.cls-40,.cls-8{font-weight:700;}.cls-9{letter-spacing:0em;}.cls-10{letter-spacing:-0.07em;}.cls-11{letter-spacing:-0.01em;}.cls-12{fill:#a1b2dc;}.cls-13{font-size:28.8px;}.cls-13,.cls-22,.cls-24{fill:#15616d;}.cls-13,.cls-22,.cls-24,.cls-33,.cls-36,.cls-40{font-family:SegoeUI-Bold, Segoe UI;}.cls-14{letter-spacing:0.04em;}.cls-15{letter-spacing:-0.01em;}.cls-16{letter-spacing:0em;}.cls-17{letter-spacing:-0.02em;}.cls-18{letter-spacing:0em;}.cls-19{letter-spacing:-0.01em;}.cls-20{letter-spacing:0em;}.cls-21{letter-spacing:0.04em;}.cls-22{font-size:24px;}.cls-23{letter-spacing:-0.01em;}.cls-24{font-size:28px;}.cls-25{letter-spacing:-0.02em;}.cls-26{letter-spacing:-0.01em;}.cls-27{letter-spacing:-0.08em;}.cls-28{letter-spacing:0.03em;}.cls-29{letter-spacing:-0.03em;}.cls-30{letter-spacing:0em;}.cls-32{fill:#167085;}.cls-33,.cls-36{font-size:31px;}.cls-33,.cls-40{fill:#fff;}.cls-34{fill:#8fd6ef;}.cls-35{fill:#f2764f;}.cls-37{letter-spacing:0.02em;}.cls-38{letter-spacing:0em;}.cls-39{fill:#f2ac2d;}.cls-40{font-size:15px;}</style></defs><g id="Layer_2" data-name="Layer 2"><polyline class="cls-1" points="494.56 234.62 40.21 234.62 17.12 234.62"/><polygon class="cls-2" points="483.01 224.78 492.84 234.62 483.01 244.45 491.35 244.45 501.19 234.62 491.35 224.78 483.01 224.78"/><path class="cls-2" d="M17.48,227.35a7.27,7.27,0,1,0,7.27,7.27A7.27,7.27,0,0,0,17.48,227.35Z"/><polyline class="cls-3" points="1701.41 234.62 120.12 234.62 17.23 234.62"/><line class="cls-4" x1="125.32" y1="234.5" x2="125.32" y2="299.98"/><line class="cls-4" x1="366.46" y1="234.76" x2="366.46" y2="300.24"/><line class="cls-4" x1="615.08" y1="234.5" x2="615.08" y2="299.98"/><line class="cls-4" x1="857.81" y1="234.76" x2="857.81" y2="300.24"/><line class="cls-4" x1="1089.91" y1="234.91" x2="1089.91" y2="300.39"/><line class="cls-4" x1="1340.73" y1="233.07" x2="1340.73" y2="298.75"/><polyline class="cls-5" points="1697.02 234.64 1275.24 234.64 1247.36 234.64"/><circle class="cls-2" cx="1696.67" cy="234.64" r="7.04"/><line class="cls-4" x1="1589.41" y1="233.53" x2="1589.41" y2="299.01"/><polyline class="cls-6" points="1220.71 234.62 770.18 234.62 740.44 234.62"/><polygon class="cls-2" points="1209.16 224.78 1218.99 234.62 1209.16 244.45 1217.51 244.45 1227.34 234.62 1217.51 224.78 1209.16 224.78"/><polyline class="cls-6" points="1470.82 234.67 1020.29 234.67 990.55 234.67"/><polygon class="cls-2" points="1459.26 224.84 1469.1 234.67 1459.26 244.5 1467.61 244.5 1477.44 234.67 1467.61 224.84 1459.26 224.84"/></g><g id="Layer_3" data-name="Layer 3"><rect class="cls-7" x="12.31" y="12.15" width="1689.11" height="85.66"/><text class="cls-8" transform="translate(597.57 70.47)">PUBLIC IN<tspan class="cls-9" x="165.09" y="0">V</tspan><tspan x="187.8" y="0">O</tspan><tspan class="cls-10" x="213.6" y="0">L</tspan><tspan x="228.77" y="0">VEMENT P</tspan><tspan class="cls-11" x="394.92" y="0">R</tspan><tspan x="416.3" y="0">OCESS</tspan></text><rect class="cls-12" x="13.32" y="297.3" width="224" height="150.72"/><text class="cls-13" transform="translate(81 348.43)">Online<tspan x="-19.04" y="30">Visioning</tspan><tspan x="-1.98" y="60">Su</tspan><tspan class="cls-14" x="31.59" y="60">r</tspan><tspan class="cls-15" x="44.21" y="60">v</tspan><tspan class="cls-16" x="59.53" y="60">ey</tspan></text><rect class="cls-12" x="254.46" y="297.3" width="224" height="150.72"/><text class="cls-13" transform="translate(285.75 365.71)"><tspan class="cls-17">S</tspan><tspan class="cls-18" x="15.43" y="0">ta</tspan><tspan class="cls-19" x="42.13" y="0">k</tspan><tspan x="57.83" y="0">eholder</tspan><tspan x="10.28" y="30">In</tspan><tspan class="cls-20" x="36.83" y="30">t</tspan><tspan x="47.93" y="30">e</tspan><tspan class="cls-21" x="63.51" y="30">r</tspan><tspan x="76.12" y="30">views</tspan></text><rect class="cls-12" x="503.08" y="297.3" width="224" height="87.12"/><text class="cls-22" transform="translate(538.54 340.24)">MTP G<tspan class="cls-23" x="75.46" y="0">o</tspan><tspan x="89.89" y="0">als &amp; </tspan><tspan x="18.47" y="25">Objecti</tspan><tspan class="cls-23" x="99.04" y="25">v</tspan><tspan x="111.81" y="25">es</tspan></text><rect class="cls-12" x="742.04" y="297.3" width="224" height="87.12"/><rect class="cls-12" x="502.35" y="392.79" width="701.42" height="54.69"/><text class="cls-24" transform="translate(647.89 430.67)">Ongoing <tspan class="cls-25" x="122.58" y="0">S</tspan><tspan x="137.58" y="0">ta</tspan><tspan class="cls-26" x="163.54" y="0">k</tspan><tspan x="178.8" y="0">eholder Feed</tspan><tspan class="cls-23" x="349.43" y="0">b</tspan><tspan x="366.52" y="0">ack</tspan></text><rect class="cls-12" x="1228.73" y="297.3" width="224" height="150.72"/><rect class="cls-12" x="1477.41" y="297.3" width="224" height="150.72"/><text class="cls-24" transform="translate(1488.01 336.14)"><tspan class="cls-27">T</tspan><tspan x="14.3" y="0">ranspo</tspan><tspan class="cls-28" x="104.25" y="0">r</tspan><tspan x="116.2" y="0">tation </tspan><tspan class="cls-29" x="19.47" y="30">P</tspan><tspan x="35.83" y="30">olicy B</tspan><tspan class="cls-23" x="123.05" y="30">o</tspan><tspan x="139.89" y="30">a</tspan><tspan class="cls-30" x="154.96" y="30">r</tspan><tspan x="165.99" y="30">d</tspan><tspan x="-1.55" y="60">P</tspan><tspan class="cls-30" x="15.65" y="60">r</tspan><tspan x="26.68" y="60">esentation &amp; </tspan><tspan x="6.75" y="90">Plan Adoption</tspan></text><rect class="cls-31" x="12.3" y="109.76" width="465.66" height="108.98"/><rect class="cls-32" x="502.59" y="109.76" width="701.18" height="108.98"/><text class="cls-33" transform="translate(127.89 175.8)">Public Visioning</text><text class="cls-33" transform="translate(719.33 175.8)">Plan De<tspan class="cls-23" x="111.47" y="0">v</tspan><tspan x="127.97" y="0">elopment</tspan></text><rect class="cls-34" x="1228.54" y="109.76" width="224.38" height="108.98"/><rect class="cls-35" x="1477.41" y="109.76" width="224" height="108.98"/><text class="cls-33" transform="translate(1515.1 172.93) scale(1.05 1)">Final Plan</text><text class="cls-22" transform="translate(789.85 340.24)">Conditions <tspan x="18.2" y="25">Analysis</tspan></text><rect class="cls-12" x="979.6" y="297.3" width="224" height="87.12"/><text class="cls-22" transform="translate(986.9 351.24)"><tspan class="cls-25">R</tspan><tspan x="15.07" y="0">ecommendations</tspan></text><text class="cls-36" transform="translate(1270.76 172.93)">Dra<tspan class="cls-37" x="51.87" y="0">f</tspan><tspan x="64.35" y="0">t Plan</tspan></text><text class="cls-24" transform="translate(1300.31 352.43)">Public<tspan x="-24.01" y="30">Comment</tspan><tspan class="cls-29" x="-2.16" y="60">P</tspan><tspan x="14.21" y="60">e</tspan><tspan class="cls-38" x="29.35" y="60">r</tspan><tspan x="40.61" y="60">iod</tspan></text><rect class="cls-39" x="1360.09" y="252.94" width="92.65" height="27.76"/><polygon class="cls-39" points="1342.57 266.82 1370.82 290.75 1370.82 242.88 1342.57 266.82"/><text class="cls-40" transform="translate(1353.43 272.28)">WE ARE HERE</text></g></svg>