<svg xmlns="http://www.w3.org/2000/svg" xmlns:xlink="http://www.w3.org/1999/xlink" viewBox="0 0 384 220.03"><defs><style>.cls-1{fill:#13606d;opacity:0.7;}.cls-2{fill:none;stroke:#fff;stroke-miterlimit:10;stroke-width:10px;}.cls-3{fill:#fff;}</style></defs><g id="Layer_2" data-name="Layer 2"><g id="Layer_1-2" data-name="Layer 1"><image width="1000" height="573" transform="scale(0.38)" xlink:href="../../../Online%20Visioning/Graphics/Photos%20for%20Cover%20Video/Veterans%20International%20Bridge.png"/><rect class="cls-1" y="0.02" width="384" height="220"/><ellipse class="cls-2" cx="192" cy="110.02" rx="64" ry="59.23"/><path class="cls-3" d="M198.59,117a2.72,2.72,0,0,1,.06,3.84l-.06.06-4.67,1.54-.82-.83,1.54-4.67a2.83,2.83,0,0,1,4,.06Zm21.09-28.19-27,27-3.46,10.44,10.48-3.46,27-27-7-7Z"/><path class="cls-3" d="M232.58,86.84l-3.9-3.9a2.18,2.18,0,0,0-3.09,0l0,0-3.84,3.84,7,7,3.84-3.85a2.08,2.08,0,0,0,.19-2.94l-.13-.13Z"/><polygon class="cls-3" points="171.09 126.28 186.24 126.28 187.51 122.45 171.09 122.45 171.09 126.28 171.09 126.28 171.09 126.28"/><polygon class="cls-3" points="171.09 103.32 201.16 103.32 204.97 99.5 171.09 99.5 171.09 103.32 171.09 103.32 171.09 103.32"/><path class="cls-3" d="M213.16,113.46v29.08h-47.8V83.23h10.51V89h26.77V83.23h10.52v8.06l4.49-4.51h0l.16-.16,1.08-1.08V81.32a3.82,3.82,0,0,0-3.82-3.82H198.82V75.58A3.83,3.83,0,0,0,195,71.76H183.52a3.82,3.82,0,0,0-3.82,3.82V77.5H163.45a3.82,3.82,0,0,0-3.83,3.82v63.13a3.83,3.83,0,0,0,3.83,3.83h51.62a3.83,3.83,0,0,0,3.82-3.83V107.72l-5.73,5.74Zm-25.94-37a2.82,2.82,0,0,1,2-.83,2.87,2.87,0,1,1-2.87,2.87,2.8,2.8,0,0,1,.83-2Z"/><polygon class="cls-3" points="171.09 114.8 189.69 114.8 193.5 110.97 171.09 110.97 171.09 114.8 171.09 114.8 171.09 114.8"/></g></g></svg>